<?xml version="1.0" encoding="UTF-8" standalone="no"?><svg xmlns="http://www.w3.org/2000/svg" xmlns:xlink="http://www.w3.org/1999/xlink" contentStyleType="text/css" height="329px" preserveAspectRatio="none" style="width:328px;height:329px;background:#FFFFFF;" version="1.1" viewBox="0 0 328 329" width="328px" zoomAndPan="magnify"><defs/><g><!--MD5=[c86ce95fe6226f2d2796c0513d8e83fe]
class Engine--><g id="elem_Engine"><rect codeLine="2" fill="#F1F1F1" height="48" id="Engine" rx="2.5" ry="2.5" style="stroke:#181818;stroke-width:0.5;" width="76" x="7" y="245"/><ellipse cx="22" cy="261" fill="#ADD1B2" rx="11" ry="11" style="stroke:#181818;stroke-width:1.0;"/><path d="M24.7656,256.875 Q24.9219,256.6563 25.1094,256.5469 Q25.2969,256.4375 25.5156,256.4375 Q25.8906,256.4375 26.125,256.7031 Q26.3594,256.9531 26.3594,257.5625 L26.3594,259.0156 Q26.3594,259.625 26.125,259.8906 Q25.8906,260.1563 25.5156,260.1563 Q25.1719,260.1563 24.9688,259.9531 Q24.7656,259.7656 24.6563,259.25 Q24.6094,258.8906 24.4219,258.7031 Q24.0938,258.3281 23.4844,258.1094 Q22.875,257.8906 22.25,257.8906 Q21.4844,257.8906 20.8438,258.2188 Q20.2188,258.5469 19.7188,259.2969 Q19.2344,260.0469 19.2344,261.0781 L19.2344,262.1719 Q19.2344,263.4063 20.125,264.2344 Q21.0156,265.0469 22.6094,265.0469 Q23.5469,265.0469 24.2031,264.7969 Q24.5938,264.6406 25.0156,264.2031 Q25.2813,263.9375 25.4219,263.8594 Q25.5781,263.7813 25.7813,263.7813 Q26.1094,263.7813 26.3594,264.0469 Q26.625,264.2969 26.625,264.6406 Q26.625,264.9844 26.2813,265.3906 Q25.7813,265.9688 24.9844,266.2969 Q23.9063,266.75 22.6094,266.75 Q21.0938,266.75 19.8906,266.125 Q18.9063,265.625 18.2188,264.5625 Q17.5313,263.4844 17.5313,262.2031 L17.5313,261.0469 Q17.5313,259.7188 18.1406,258.5781 Q18.7656,257.4219 19.8594,256.8125 Q20.9531,256.1875 22.1875,256.1875 Q22.9219,256.1875 23.5625,256.3594 Q24.2188,256.5156 24.7656,256.875 Z " fill="#000000"/><text fill="#000000" font-family="sans-serif" font-size="14" lengthAdjust="spacing" textLength="44" x="36" y="266.7285">Engine</text><line style="stroke:#181818;stroke-width:0.5;" x1="8" x2="82" y1="277" y2="277"/><line style="stroke:#181818;stroke-width:0.5;" x1="8" x2="82" y1="285" y2="285"/></g><!--MD5=[09d585a3c64e91163571c551edd1e82c]
class Pálya--><g id="elem_Pálya"><rect codeLine="3" fill="#F1F1F1" height="48" id="Pálya" rx="2.5" ry="2.5" style="stroke:#181818;stroke-width:0.5;" width="67" x="230" y="274"/><ellipse cx="245" cy="290" fill="#ADD1B2" rx="11" ry="11" style="stroke:#181818;stroke-width:1.0;"/><path d="M247.7656,285.875 Q247.9219,285.6563 248.1094,285.5469 Q248.2969,285.4375 248.5156,285.4375 Q248.8906,285.4375 249.125,285.7031 Q249.3594,285.9531 249.3594,286.5625 L249.3594,288.0156 Q249.3594,288.625 249.125,288.8906 Q248.8906,289.1563 248.5156,289.1563 Q248.1719,289.1563 247.9688,288.9531 Q247.7656,288.7656 247.6563,288.25 Q247.6094,287.8906 247.4219,287.7031 Q247.0938,287.3281 246.4844,287.1094 Q245.875,286.8906 245.25,286.8906 Q244.4844,286.8906 243.8438,287.2188 Q243.2188,287.5469 242.7188,288.2969 Q242.2344,289.0469 242.2344,290.0781 L242.2344,291.1719 Q242.2344,292.4063 243.125,293.2344 Q244.0156,294.0469 245.6094,294.0469 Q246.5469,294.0469 247.2031,293.7969 Q247.5938,293.6406 248.0156,293.2031 Q248.2813,292.9375 248.4219,292.8594 Q248.5781,292.7813 248.7813,292.7813 Q249.1094,292.7813 249.3594,293.0469 Q249.625,293.2969 249.625,293.6406 Q249.625,293.9844 249.2813,294.3906 Q248.7813,294.9688 247.9844,295.2969 Q246.9063,295.75 245.6094,295.75 Q244.0938,295.75 242.8906,295.125 Q241.9063,294.625 241.2188,293.5625 Q240.5313,292.4844 240.5313,291.2031 L240.5313,290.0469 Q240.5313,288.7188 241.1406,287.5781 Q241.7656,286.4219 242.8594,285.8125 Q243.9531,285.1875 245.1875,285.1875 Q245.9219,285.1875 246.5625,285.3594 Q247.2188,285.5156 247.7656,285.875 Z " fill="#000000"/><text fill="#000000" font-family="sans-serif" font-size="14" lengthAdjust="spacing" textLength="35" x="259" y="295.7285">Pálya</text><line style="stroke:#181818;stroke-width:0.5;" x1="231" x2="296" y1="306" y2="306"/><line style="stroke:#181818;stroke-width:0.5;" x1="231" x2="296" y1="314" y2="314"/></g><!--MD5=[e0b30dbc8135f4663e9050456021ebce]
class Karakter--><g id="elem_Karakter"><rect codeLine="4" fill="#F1F1F1" height="48" id="Karakter" rx="2.5" ry="2.5" style="stroke:#181818;stroke-width:0.5;" width="86" x="220.5" y="191"/><ellipse cx="235.5" cy="207" fill="#ADD1B2" rx="11" ry="11" style="stroke:#181818;stroke-width:1.0;"/><path d="M238.2656,202.875 Q238.4219,202.6563 238.6094,202.5469 Q238.7969,202.4375 239.0156,202.4375 Q239.3906,202.4375 239.625,202.7031 Q239.8594,202.9531 239.8594,203.5625 L239.8594,205.0156 Q239.8594,205.625 239.625,205.8906 Q239.3906,206.1563 239.0156,206.1563 Q238.6719,206.1563 238.4688,205.9531 Q238.2656,205.7656 238.1563,205.25 Q238.1094,204.8906 237.9219,204.7031 Q237.5938,204.3281 236.9844,204.1094 Q236.375,203.8906 235.75,203.8906 Q234.9844,203.8906 234.3438,204.2188 Q233.7188,204.5469 233.2188,205.2969 Q232.7344,206.0469 232.7344,207.0781 L232.7344,208.1719 Q232.7344,209.4063 233.625,210.2344 Q234.5156,211.0469 236.1094,211.0469 Q237.0469,211.0469 237.7031,210.7969 Q238.0938,210.6406 238.5156,210.2031 Q238.7813,209.9375 238.9219,209.8594 Q239.0781,209.7813 239.2813,209.7813 Q239.6094,209.7813 239.8594,210.0469 Q240.125,210.2969 240.125,210.6406 Q240.125,210.9844 239.7813,211.3906 Q239.2813,211.9688 238.4844,212.2969 Q237.4063,212.75 236.1094,212.75 Q234.5938,212.75 233.3906,212.125 Q232.4063,211.625 231.7188,210.5625 Q231.0313,209.4844 231.0313,208.2031 L231.0313,207.0469 Q231.0313,205.7188 231.6406,204.5781 Q232.2656,203.4219 233.3594,202.8125 Q234.4531,202.1875 235.6875,202.1875 Q236.4219,202.1875 237.0625,202.3594 Q237.7188,202.5156 238.2656,202.875 Z " fill="#000000"/><text fill="#000000" font-family="sans-serif" font-size="14" lengthAdjust="spacing" textLength="54" x="249.5" y="212.7285">Karakter</text><line style="stroke:#181818;stroke-width:0.5;" x1="221.5" x2="305.5" y1="223" y2="223"/><line style="stroke:#181818;stroke-width:0.5;" x1="221.5" x2="305.5" y1="231" y2="231"/></g><!--MD5=[74d0a802711f39cfec7618e518659b62]
class Játékos--><g id="elem_Játékos"><rect codeLine="5" fill="#F1F1F1" height="65.6094" id="Játékos" rx="2.5" ry="2.5" style="stroke:#181818;stroke-width:0.5;" width="115" x="206" y="7"/><ellipse cx="236.75" cy="23" fill="#ADD1B2" rx="11" ry="11" style="stroke:#181818;stroke-width:1.0;"/><path d="M239.5156,18.875 Q239.6719,18.6563 239.8594,18.5469 Q240.0469,18.4375 240.2656,18.4375 Q240.6406,18.4375 240.875,18.7031 Q241.1094,18.9531 241.1094,19.5625 L241.1094,21.0156 Q241.1094,21.625 240.875,21.8906 Q240.6406,22.1563 240.2656,22.1563 Q239.9219,22.1563 239.7188,21.9531 Q239.5156,21.7656 239.4063,21.25 Q239.3594,20.8906 239.1719,20.7031 Q238.8438,20.3281 238.2344,20.1094 Q237.625,19.8906 237,19.8906 Q236.2344,19.8906 235.5938,20.2188 Q234.9688,20.5469 234.4688,21.2969 Q233.9844,22.0469 233.9844,23.0781 L233.9844,24.1719 Q233.9844,25.4063 234.875,26.2344 Q235.7656,27.0469 237.3594,27.0469 Q238.2969,27.0469 238.9531,26.7969 Q239.3438,26.6406 239.7656,26.2031 Q240.0313,25.9375 240.1719,25.8594 Q240.3281,25.7813 240.5313,25.7813 Q240.8594,25.7813 241.1094,26.0469 Q241.375,26.2969 241.375,26.6406 Q241.375,26.9844 241.0313,27.3906 Q240.5313,27.9688 239.7344,28.2969 Q238.6563,28.75 237.3594,28.75 Q235.8438,28.75 234.6406,28.125 Q233.6563,27.625 232.9688,26.5625 Q232.2813,25.4844 232.2813,24.2031 L232.2813,23.0469 Q232.2813,21.7188 232.8906,20.5781 Q233.5156,19.4219 234.6094,18.8125 Q235.7031,18.1875 236.9375,18.1875 Q237.6719,18.1875 238.3125,18.3594 Q238.9688,18.5156 239.5156,18.875 Z " fill="#000000"/><text fill="#000000" font-family="sans-serif" font-size="14" lengthAdjust="spacing" textLength="48" x="254.25" y="28.7285">Játékos</text><line style="stroke:#181818;stroke-width:0.5;" x1="207" x2="320" y1="39" y2="39"/><line style="stroke:#181818;stroke-width:0.5;" x1="207" x2="320" y1="47" y2="47"/><ellipse cx="217" cy="61.3047" fill="#84BE84" rx="3" ry="3" style="stroke:#038048;stroke-width:1.0;"/><text fill="#000000" font-family="sans-serif" font-size="14" lengthAdjust="spacing" textLength="89" x="226" y="65.5332">iranyitas(cmd)</text></g><!--MD5=[bf357faee3a8f29784661ae3b7fe4162]
class Szörny--><g id="elem_Szörny"><rect codeLine="8" fill="#F1F1F1" height="48" id="Szörny" rx="2.5" ry="2.5" style="stroke:#181818;stroke-width:0.5;" width="75" x="226" y="108"/><ellipse cx="241" cy="124" fill="#ADD1B2" rx="11" ry="11" style="stroke:#181818;stroke-width:1.0;"/><path d="M243.7656,119.875 Q243.9219,119.6563 244.1094,119.5469 Q244.2969,119.4375 244.5156,119.4375 Q244.8906,119.4375 245.125,119.7031 Q245.3594,119.9531 245.3594,120.5625 L245.3594,122.0156 Q245.3594,122.625 245.125,122.8906 Q244.8906,123.1563 244.5156,123.1563 Q244.1719,123.1563 243.9688,122.9531 Q243.7656,122.7656 243.6563,122.25 Q243.6094,121.8906 243.4219,121.7031 Q243.0938,121.3281 242.4844,121.1094 Q241.875,120.8906 241.25,120.8906 Q240.4844,120.8906 239.8438,121.2188 Q239.2188,121.5469 238.7188,122.2969 Q238.2344,123.0469 238.2344,124.0781 L238.2344,125.1719 Q238.2344,126.4063 239.125,127.2344 Q240.0156,128.0469 241.6094,128.0469 Q242.5469,128.0469 243.2031,127.7969 Q243.5938,127.6406 244.0156,127.2031 Q244.2813,126.9375 244.4219,126.8594 Q244.5781,126.7813 244.7813,126.7813 Q245.1094,126.7813 245.3594,127.0469 Q245.625,127.2969 245.625,127.6406 Q245.625,127.9844 245.2813,128.3906 Q244.7813,128.9688 243.9844,129.2969 Q242.9063,129.75 241.6094,129.75 Q240.0938,129.75 238.8906,129.125 Q237.9063,128.625 237.2188,127.5625 Q236.5313,126.4844 236.5313,125.2031 L236.5313,124.0469 Q236.5313,122.7188 237.1406,121.5781 Q237.7656,120.4219 238.8594,119.8125 Q239.9531,119.1875 241.1875,119.1875 Q241.9219,119.1875 242.5625,119.3594 Q243.2188,119.5156 243.7656,119.875 Z " fill="#000000"/><text fill="#000000" font-family="sans-serif" font-size="14" lengthAdjust="spacing" textLength="43" x="255" y="129.7285">Szörny</text><line style="stroke:#181818;stroke-width:0.5;" x1="227" x2="300" y1="140" y2="140"/><line style="stroke:#181818;stroke-width:0.5;" x1="227" x2="300" y1="148" y2="148"/></g><!--MD5=[6869d5c7d8d7627ef34ef4d66e090a65]
link Játékos to Karakter--><g id="link_Játékos_Karakter"><path codeLine="10" d="M205.92,58.09 C182.56,68.58 157.95,84.41 144.5,107.5 C133.76,125.93 133.28,137.35 144.5,155.5 C157.27,176.17 179.64,189.9 201.56,198.9 " fill="none" id="Játékos-to-Karakter" style="stroke:#181818;stroke-width:1.0;"/><polygon fill="none" points="203.98,192.33,220.46,205.65,199.27,205.51,203.98,192.33" style="stroke:#181818;stroke-width:1.0;"/></g><!--MD5=[2a25f611c5ddca8a23112e6199b5a81a]
link Szörny to Karakter--><g id="link_Szörny_Karakter"><path codeLine="11" d="M263.5,156.3 C263.5,161.04 263.5,165.79 263.5,170.54 " fill="none" id="Szörny-to-Karakter" style="stroke:#181818;stroke-width:1.0;"/><polygon fill="none" points="270.5,170.68,263.5,190.68,256.5,170.68,270.5,170.68" style="stroke:#181818;stroke-width:1.0;"/></g><!--MD5=[8138ac9f37bfbf78f74610eec47a8e94]
reverse link Engine to Karakter--><g id="link_Engine_Karakter"><path codeLine="13" d="M95.92,256.55 C133.55,247.16 184.59,234.43 220.21,225.55 " fill="none" id="Engine-backto-Karakter" style="stroke:#181818;stroke-width:1.0;"/><polygon fill="#181818" points="83.22,259.72,90.0091,262.1508,94.864,256.8189,88.075,254.3881,83.22,259.72" style="stroke:#181818;stroke-width:1.0;"/><text fill="#000000" font-family="sans-serif" font-size="13" lengthAdjust="spacing" textLength="61" x="114" y="234.4951">karakterek</text><text fill="#000000" font-family="sans-serif" font-size="13" lengthAdjust="spacing" textLength="5" x="207.626" y="242.1466">*</text></g><!--MD5=[9456e722f8fc0eec87b458026eb14627]
reverse link Engine to Pálya--><g id="link_Engine_Pálya"><path codeLine="14" d="M96.14,285.32 C101.78,286.75 107.49,288.02 113,289 C152.81,296.04 199.42,297.85 229.88,298.18 " fill="none" id="Engine-backto-Pálya" style="stroke:#181818;stroke-width:1.0;"/><polygon fill="#181818" points="83.2,281.76,87.9198,287.2119,94.7677,284.952,90.0478,279.5001,83.2,281.76" style="stroke:#181818;stroke-width:1.0;"/><text fill="#000000" font-family="sans-serif" font-size="13" lengthAdjust="spacing" textLength="38" x="125.5" y="285.4951">pályák</text><text fill="#000000" font-family="sans-serif" font-size="13" lengthAdjust="spacing" textLength="5" x="216.9788" y="313.5029">*</text></g><!--MD5=[52ea76f7db9b9f7e5b1f662fa6ceae06]
@startuml
left to right direction
class Engine 
class Pálya 
class Karakter 
class Játékos {
    +iranyitas(cmd)
} 
class Szörny 

Játékos -|> Karakter
Szörny -|> Karakter

Engine *- - "*" Karakter : karakterek
Engine *- - "*" Pálya : pályák
@enduml

PlantUML version 1.2022.7(Mon Aug 22 19:01:30 CEST 2022)
(GPL source distribution)
Java Runtime: OpenJDK Runtime Environment
JVM: OpenJDK 64-Bit Server VM
Default Encoding: UTF-8
Language: hu
Country: HU
--></g></svg>