<?xml version="1.0" encoding="UTF-8" standalone="no"?><svg xmlns="http://www.w3.org/2000/svg" xmlns:xlink="http://www.w3.org/1999/xlink" contentStyleType="text/css" height="369px" preserveAspectRatio="none" style="width:276px;height:369px;background:#FFFFFF;" version="1.1" viewBox="0 0 276 369" width="276px" zoomAndPan="magnify"><defs/><g><ellipse cx="33.59" cy="16" fill="#222222" rx="10" ry="10" style="stroke:none;stroke-width:1.0;"/><g id="Álló"><rect fill="#F1F1F1" height="50" rx="12.5" ry="12.5" style="stroke:#181818;stroke-width:0.5;" width="50" x="8.59" y="87"/><line style="stroke:#181818;stroke-width:0.5;" x1="8.59" x2="58.59" y1="114.6094" y2="114.6094"/><text fill="#000000" font-family="sans-serif" font-size="14" lengthAdjust="spacing" textLength="23" x="22.09" y="106.5332">Álló</text></g><g id="Vándorol"><rect fill="#F1F1F1" height="50" rx="12.5" ry="12.5" style="stroke:#181818;stroke-width:0.5;" width="77" x="82.09" y="215"/><line style="stroke:#181818;stroke-width:0.5;" x1="82.09" x2="159.09" y1="242.6094" y2="242.6094"/><text fill="#000000" font-family="sans-serif" font-size="14" lengthAdjust="spacing" textLength="57" x="92.09" y="234.5332">Vándorol</text></g><g id="Üldöz"><rect fill="#F1F1F1" height="50" rx="12.5" ry="12.5" style="stroke:#181818;stroke-width:0.5;" width="54" x="160.59" y="87"/><line style="stroke:#181818;stroke-width:0.5;" x1="160.59" x2="214.59" y1="114.6094" y2="114.6094"/><text fill="#000000" font-family="sans-serif" font-size="14" lengthAdjust="spacing" textLength="34" x="170.59" y="106.5332">Üldöz</text></g><ellipse cx="120.59" cy="353" fill="none" rx="10" ry="10" style="stroke:#222222;stroke-width:1.0;"/><ellipse cx="121.09" cy="353.5" fill="#222222" rx="6" ry="6" style="stroke:none;stroke-width:1.0;"/><!--MD5=[211a0033a04c6317deaba014acffd88a]
link *start to Álló--><g id="link_*start_Álló"><path d="M33.59,26.01 C33.59,38.7 33.59,62.41 33.59,81.57 " fill="none" id="*start-to-Álló" style="stroke:#181818;stroke-width:1.0;"/><polygon fill="#181818" points="33.59,86.84,37.59,77.84,33.59,81.84,29.59,77.84,33.59,86.84" style="stroke:#181818;stroke-width:1.0;"/></g><!--MD5=[5bc42d56bd1b7c15284f04de61aa5392]
link Álló to Vándorol--><g id="link_Álló_Vándorol"><path d="M38.62,137.13 C42.47,151.84 48.81,170.53 58.59,185 C65.16,194.73 73.91,203.78 82.76,211.58 " fill="none" id="Álló-to-Vándorol" style="stroke:#181818;stroke-width:1.0;"/><polygon fill="#181818" points="86.55,214.85,82.3557,205.9389,82.7668,211.5808,77.125,211.9919,86.55,214.85" style="stroke:#181818;stroke-width:1.0;"/><text fill="#000000" font-family="sans-serif" font-size="13" lengthAdjust="spacing" textLength="45" x="59.59" y="181.4951">[dx &gt; 5]</text></g><!--MD5=[cff371a220ed5c4ec1acf66a648e8bb2]
link Vándorol to Üldöz--><g id="link_Vándorol_Üldöz"><path d="M113.97,214.79 C111.32,200.22 110.36,181.71 117.59,167 C125.69,150.52 141.5,137.65 156.06,128.62 " fill="none" id="Vándorol-to-Üldöz" style="stroke:#181818;stroke-width:1.0;"/><polygon fill="#181818" points="160.52,125.94,150.7446,127.1405,156.2325,128.5125,154.8605,134.0004,160.52,125.94" style="stroke:#181818;stroke-width:1.0;"/><text fill="#000000" font-family="sans-serif" font-size="13" lengthAdjust="spacing" textLength="45" x="118.59" y="181.4951">[dx &lt; 5]</text></g><!--MD5=[90d1ee955e86ac6246f2a68ccc179009]
link Üldöz to Vándorol--><g id="link_Üldöz_Vándorol"><path d="M184.15,137.06 C181.38,151.57 176.6,170.08 168.59,185 C163.65,194.21 156.83,203.15 149.89,211.02 " fill="none" id="Üldöz-to-Vándorol" style="stroke:#181818;stroke-width:1.0;"/><polygon fill="#181818" points="146.48,214.79,155.49,210.8126,149.8398,211.0871,149.5653,205.4369,146.48,214.79" style="stroke:#181818;stroke-width:1.0;"/><text fill="#000000" font-family="sans-serif" font-size="13" lengthAdjust="spacing" textLength="53" x="176.59" y="181.4951">[dx &gt;= 5]</text></g><!--MD5=[3a2d523db08b46a2344355d0a4e1e7df]
link Álló to Üldöz--><g id="link_Álló_Üldöz"><path d="M58.68,112 C84.99,112 126.46,112 155.22,112 " fill="none" id="Álló-to-Üldöz" style="stroke:#181818;stroke-width:1.0;"/><polygon fill="#181818" points="160.44,112,151.44,108,155.44,112,151.44,116,160.44,112" style="stroke:#181818;stroke-width:1.0;"/><text fill="#000000" font-family="sans-serif" font-size="13" lengthAdjust="spacing" textLength="45" x="87.09" y="105.4951">[dx &lt; 5]</text></g><!--MD5=[f5e15aea1c096e3fa08cf37eea9f9e2a]
link Üldöz to *end--><g id="link_Üldöz_*end"><path d="M214.67,134.07 C224.11,143.07 233.59,154.42 238.59,167 C241.55,174.43 240.57,177.25 238.59,185 C222.53,247.82 210.09,263.18 168.59,313 C158.25,325.42 143.48,336.71 133.06,343.92 " fill="none" id="Üldöz-to-*end" style="stroke:#181818;stroke-width:1.0;"/><polygon fill="#181818" points="128.88,346.74,138.5724,344.9915,133.016,343.9304,134.077,338.374,128.88,346.74" style="stroke:#181818;stroke-width:1.0;"/><text fill="#000000" font-family="sans-serif" font-size="13" lengthAdjust="spacing" textLength="38" x="230.59" y="245.4951">[h==0]</text></g><!--MD5=[fa3cae704e1ed495b30117649128f5ce]
link Álló to *end--><g id="link_Álló_*end"><path d="M25.6,137.12 C16.74,168.16 6,223.07 24.59,265 C41.71,303.62 85.37,332.39 107.42,344.99 " fill="none" id="Álló-to-*end" style="stroke:#181818;stroke-width:1.0;"/><polygon fill="#181818" points="112.04,347.56,106.1261,339.6844,107.6726,345.1257,102.2312,346.6722,112.04,347.56" style="stroke:#181818;stroke-width:1.0;"/><text fill="#000000" font-family="sans-serif" font-size="13" lengthAdjust="spacing" textLength="38" x="25.59" y="245.4951">[h==0]</text></g><!--MD5=[121f1d8a26bb93433ecdcafd776c5d89]
link Vándorol to *end--><g id="link_Vándorol_*end"><path d="M120.59,265.09 C120.59,287.16 120.59,319.12 120.59,337.5 " fill="none" id="Vándorol-to-*end" style="stroke:#181818;stroke-width:1.0;"/><polygon fill="#181818" points="120.59,342.75,124.59,333.75,120.59,337.75,116.59,333.75,120.59,342.75" style="stroke:#181818;stroke-width:1.0;"/><text fill="#000000" font-family="sans-serif" font-size="13" lengthAdjust="spacing" textLength="38" x="121.59" y="309.4951">[h==0]</text></g><!--MD5=[256c5a2eb01253413195b19eab36e2ef]
@startuml

[*] - -> Álló

Álló - -> Vándorol: [dx > 5]

Vándorol - -> Üldöz: [dx < 5]
Üldöz - -> Vándorol: [dx >= 5]

Álló -> Üldöz: [dx < 5]

Üldöz - -> [*]: [h==0]
Álló - -> [*]: [h==0]
Vándorol - -> [*]: [h==0]

@enduml

PlantUML version 1.2022.7(Mon Aug 22 19:01:30 CEST 2022)
(GPL source distribution)
Java Runtime: OpenJDK Runtime Environment
JVM: OpenJDK 64-Bit Server VM
Default Encoding: UTF-8
Language: hu
Country: HU
--></g></svg>